<svg width="570" height="462" viewBox="0 0 570 462" fill="none" xmlns="http://www.w3.org/2000/svg">
<path d="M465.905 114.345C489.772 184.354 440.497 282.443 371.203 326.294C301.91 370.146 212.983 360.145 133.295 308.984C53.6073 257.824 -16.8413 165.505 3.56183 100.497C23.965 35.4891 135.22 -2.20781 239.545 0.100171C344.256 2.02349 441.652 44.3364 465.905 114.345Z" fill="#EAE7E3"/>
<path d="M185.848 0L58 230.712L185.848 461.424H442.152L570 230.712L442.152 0H185.848ZM423.986 16.005L357.63 135.754H270.546L204.174 16.005H423.986ZM401.227 230.712L357.47 309.665H270.53L226.773 230.712L270.53 151.759H357.47L401.227 230.712ZM190.569 24.5037L256.654 143.741L212.944 222.63H80.7431L190.569 24.5037ZM80.6791 238.635H212.88L255.982 316.419L189.897 435.656L80.6791 238.635ZM202.781 445.419L269.154 325.67H359.006L425.379 445.419H202.781ZM438.199 435.528L372.114 316.275L415.136 238.635H547.337L438.199 435.528ZM415.04 222.63L371.41 143.901L437.495 24.6477L547.241 222.63H415.04Z" fill="#897A66"/>
</svg>
