<svg width="512" height="454" viewBox="0 0 512 454" fill="none" xmlns="http://www.w3.org/2000/svg">
<path d="M490.905 114.345C514.772 184.354 465.497 282.443 396.203 326.294C326.91 370.146 237.983 360.145 158.295 308.984C78.6073 257.824 8.1587 165.505 28.5618 100.497C48.965 35.4891 160.22 -2.20781 264.545 0.100171C369.256 2.02349 466.652 44.3364 490.905 114.345Z" fill="#EAE7E3"/>
<path d="M255.992 11L0 453.391H512L255.992 11ZM247.993 286.478L37.2285 420.994L247.993 56.7557V286.478ZM247.993 305.452V351.64L114.117 437.392H41.2761L247.993 305.452ZM256.008 365.527L368.669 437.392H143.779L256.008 365.527ZM263.991 351.64V305.452L470.724 437.392H398.411L263.991 351.64ZM263.991 286.478V56.7557L474.755 420.994L263.991 286.478Z" fill="#897A66"/>
</svg>
