<svg width="571" height="532" viewBox="0 0 571 532" fill="none" xmlns="http://www.w3.org/2000/svg">
<path d="M426.305 164.721C455.356 250.682 446.355 351.788 380.07 408.276C314.194 464.355 190.217 475.408 106.338 417.691C22.459 359.975 -22.14 233.49 11.0024 141.798C43.7356 50.1069 154.21 -6.38156 242.59 0.577156C330.97 7.94521 397.255 78.7604 426.305 164.721Z" fill="#EAE7E3"/>
<path d="M571 127.824L463.176 20L315 168.176L166.824 20L59 127.824L207.176 276L59 424.176L166.824 532L315 383.824L463.176 532L571 424.176L422.824 276L571 127.824ZM548.376 424.176L463.176 509.376L315 361.2L166.824 509.376L81.624 424.176L229.8 276L81.624 127.824L166.824 42.624L315 190.8L463.176 42.624L548.376 127.824L400.2 276L548.376 424.176Z" fill="#897A66"/>
<path d="M373.784 205.92L315 264.688L256.232 205.92L244.92 217.232L303.688 276L244.92 334.768L256.232 346.08L315 287.312L373.784 346.08L385.096 334.768L326.312 276L385.096 217.232L373.784 205.92Z" fill="#897A66"/>
</svg>
