<svg width="274" height="242" viewBox="0 0 274 242" fill="none" xmlns="http://www.w3.org/2000/svg">
<circle cx="120.5" cy="120.5" r="120.5" fill="#F7F7F5"/>
<circle cx="153.5" cy="121.5" r="120" stroke="#847868"/>
<path d="M133.612 126.682C132.251 130.106 130.106 133.488 127.239 136.747C126.332 137.779 126.208 139.263 126.951 140.418C127.528 141.326 128.477 141.821 129.508 141.821C129.797 141.821 130.086 141.8 130.374 141.697C136.438 139.923 150.608 133.633 150.999 113.462C151.144 105.686 145.451 99.0035 138.047 98.2404C133.943 97.8279 129.859 99.1684 126.827 101.891C123.795 104.634 122.062 108.553 122.062 112.637C122.062 119.443 126.889 125.404 133.612 126.682Z" fill="#847868"/>
<path d="M170.965 98.2404C166.881 97.8279 162.797 99.1684 159.765 101.891C156.734 104.634 155.001 108.553 155.001 112.637C155.001 119.443 159.827 125.403 166.551 126.682C165.19 130.106 163.045 133.488 160.178 136.747C159.27 137.778 159.147 139.263 159.889 140.418C160.467 141.326 161.415 141.821 162.447 141.821C162.735 141.821 163.024 141.8 163.313 141.697C169.377 139.923 183.546 133.633 183.938 113.462V113.173C183.938 105.521 178.307 99.0035 170.965 98.2404Z" fill="#847868"/>
</svg>
