<svg width="532" height="554" viewBox="0 0 532 554" fill="none" xmlns="http://www.w3.org/2000/svg">
<path d="M523.34 131.198C554.935 218.406 497.49 344.425 393.13 424.925C288.292 505.903 137.018 541.361 61.3813 483.382C-14.2555 425.883 -14.2555 274.947 30.2648 170.01C74.7852 64.5944 162.869 5.65744 267.228 0.386657C371.588 -4.88413 492.224 43.9904 523.34 131.198Z" fill="#EAE7E3"/>
<path d="M108 554H532L108 131.384V554ZM229.014 270.702L392.199 433.359H229.014V270.702ZM121.249 163.293L215.765 257.496V446.604H405.488L499.938 540.741H121.249V163.293Z" fill="#897A66"/>
<path d="M531.722 131H216.984L531.735 444.723L531.722 131ZM440.054 334.652L327.439 222.408H440.054V334.652ZM518.473 412.828L453.302 347.871V209.163H314.164L249.046 144.246H518.486L518.473 412.828Z" fill="#897A66"/>
</svg>
