<svg width="2100" height="1165" viewBox="0 0 2100 1165" fill="none" xmlns="http://www.w3.org/2000/svg">
<g clip-path="url(#clip0_13_13)">
<rect width="2100" height="1165" fill="#F7F7F5"/>
<circle cx="64.5" cy="564.5" r="337.5" fill="#EFEFEE" fill-opacity="0.3"/>
<circle cx="2047" cy="158" r="158" fill="#EFEFEE" fill-opacity="0.3"/>
<circle cx="40.5" cy="994.5" r="136" stroke="black" stroke-opacity="0.03"/>
<path d="M1237.21 1140.69C1229.69 1144.79 1222.37 1147.67 1215.24 1149.33C1208.21 1151.09 1201.86 1151.97 1196.2 1151.97C1187.6 1151.97 1180.28 1150.41 1174.22 1147.28C1168.27 1144.16 1163.14 1140.1 1158.84 1135.12C1154.54 1130.14 1150.88 1124.53 1147.86 1118.28C1144.93 1112.03 1142.24 1105.73 1139.8 1099.38C1132.77 1102.7 1125.54 1105.24 1118.12 1107C1110.79 1108.85 1103.23 1109.78 1095.41 1109.78C1085.26 1109.78 1075.64 1108.17 1066.56 1104.95C1057.57 1101.72 1049.71 1096.84 1042.97 1090.3C1036.23 1083.76 1030.86 1075.55 1026.86 1065.69C1022.95 1055.73 1021 1044.11 1021 1030.83C1021 1016.57 1022.86 1002.46 1026.57 988.492C1030.28 974.43 1035.5 961.051 1042.24 948.355C1049.08 935.562 1057.23 923.746 1066.7 912.906C1076.27 901.969 1086.87 892.545 1098.49 884.635C1110.21 876.627 1122.76 870.377 1136.14 865.885C1149.61 861.295 1163.68 859 1178.32 859C1187.11 859 1194.68 860.172 1201.03 862.516C1207.47 864.762 1212.94 867.643 1217.44 871.158C1222.03 874.674 1225.74 878.531 1228.57 882.73C1231.5 886.832 1233.74 890.689 1235.31 894.303C1236.97 897.916 1238.09 900.992 1238.68 903.531C1239.26 906.07 1239.6 907.535 1239.7 907.926L1232.23 909.391C1232.13 909.195 1231.84 908.023 1231.35 905.875C1230.86 903.629 1229.98 900.943 1228.71 897.818C1227.45 894.596 1225.64 891.178 1223.29 887.564C1221.05 883.854 1218.02 880.436 1214.21 877.311C1210.5 874.186 1205.91 871.598 1200.44 869.547C1195.07 867.496 1188.68 866.471 1181.25 866.471C1170.02 866.471 1158.65 868.766 1147.12 873.355C1135.6 877.945 1124.47 884.293 1113.72 892.398C1103.08 900.406 1093.07 909.83 1083.7 920.67C1074.42 931.412 1066.26 943.033 1059.23 955.533C1052.3 967.936 1046.83 980.826 1042.83 994.205C1038.82 1007.58 1036.82 1020.87 1036.82 1034.05C1036.82 1045.67 1038.38 1055.78 1041.51 1064.37C1044.63 1072.87 1048.83 1079.9 1054.11 1085.46C1059.48 1091.13 1065.73 1095.33 1072.86 1098.06C1080.08 1100.8 1087.75 1102.16 1095.85 1102.16C1102.98 1102.16 1109.96 1101.29 1116.8 1099.53C1123.73 1097.77 1130.47 1095.33 1137.02 1092.2C1135.16 1087.52 1133.26 1083.07 1131.3 1078.87C1129.45 1074.58 1127.3 1070.82 1124.86 1067.59C1122.51 1064.37 1119.83 1061.83 1116.8 1059.98C1113.87 1058.02 1110.4 1057.05 1106.4 1057.05C1103.57 1057.05 1100.88 1057.29 1098.34 1057.78C1095.9 1058.17 1093.71 1058.66 1091.75 1059.24C1089.9 1059.83 1088.38 1060.37 1087.21 1060.86C1086.14 1061.25 1085.6 1061.44 1085.6 1061.44L1082.67 1054.41C1082.87 1054.31 1083.74 1054.02 1085.31 1053.53C1086.87 1052.95 1088.87 1052.36 1091.31 1051.77C1093.75 1051.09 1096.54 1050.5 1099.66 1050.02C1102.88 1049.43 1106.25 1049.14 1109.77 1049.14C1115.92 1049.14 1121.24 1050.06 1125.74 1051.92C1130.23 1053.78 1134.09 1056.31 1137.31 1059.54C1140.53 1062.66 1143.27 1066.32 1145.51 1070.52C1147.86 1074.72 1150 1079.17 1151.96 1083.85C1158.89 1079.26 1165.48 1073.99 1171.73 1068.03C1177.98 1062.08 1183.74 1055.68 1189.02 1048.84C1194.39 1042.01 1199.17 1034.78 1203.37 1027.16C1207.67 1019.55 1211.33 1011.78 1214.36 1003.87C1217.39 995.963 1219.68 988.053 1221.24 980.143C1222.9 972.135 1223.73 964.273 1223.73 956.559C1223.73 948.16 1222.66 940.299 1220.51 932.975C1218.36 925.65 1215.34 919.303 1211.43 913.932C1207.52 908.463 1202.79 904.215 1197.22 901.188C1191.75 898.062 1185.6 896.5 1178.76 896.5C1171.73 896.5 1164.9 898.062 1158.26 901.188C1151.62 904.312 1145.71 908.658 1140.53 914.225C1135.45 919.791 1131.35 926.432 1128.23 934.146C1125.2 941.764 1123.69 950.064 1123.69 959.049C1123.69 967.447 1125.44 975.504 1128.96 983.219C1132.47 990.934 1138.09 997.525 1145.8 1002.99L1142.14 1007.97C1137.75 1006.41 1133.5 1004.21 1129.4 1001.38C1125.3 998.453 1121.68 994.938 1118.56 990.836C1115.43 986.734 1112.89 982.047 1110.94 976.773C1109.09 971.5 1108.16 965.641 1108.16 959.195C1108.16 948.551 1110.06 938.932 1113.87 930.338C1117.68 921.646 1122.81 914.225 1129.25 908.072C1135.7 901.92 1143.12 897.184 1151.52 893.863C1159.92 890.445 1168.66 888.736 1177.74 888.736C1186.14 888.736 1193.66 890.494 1200.3 894.01C1206.94 897.428 1212.55 902.164 1217.14 908.219C1221.73 914.273 1225.25 921.402 1227.69 929.605C1230.13 937.711 1231.35 946.5 1231.35 955.973C1231.35 963.98 1230.47 972.232 1228.71 980.729C1227.05 989.225 1224.61 997.672 1221.39 1006.07C1218.27 1014.47 1214.46 1022.72 1209.96 1030.83C1205.47 1038.83 1200.35 1046.5 1194.58 1053.82C1188.92 1061.15 1182.72 1067.98 1175.98 1074.33C1169.34 1080.68 1162.26 1086.25 1154.74 1091.03C1156.21 1095.13 1157.72 1099.19 1159.28 1103.19C1160.84 1107.29 1162.55 1111.2 1164.41 1114.91C1166.26 1118.72 1168.36 1122.23 1170.71 1125.46C1173.15 1128.68 1175.93 1131.46 1179.06 1133.8C1182.28 1136.15 1185.99 1138 1190.19 1139.37C1194.39 1140.74 1199.22 1141.42 1204.69 1141.42C1208.6 1141.42 1212.31 1141.03 1215.82 1140.25C1219.34 1139.57 1222.37 1138.74 1224.91 1137.76C1227.54 1136.88 1229.59 1136.05 1231.06 1135.27C1232.62 1134.49 1233.4 1134.1 1233.4 1134.1L1237.21 1140.69Z" fill="#F3F3F2"/>
<path d="M1305.77 1047.23C1301.27 1052.51 1296.83 1057.39 1292.44 1061.88C1288.04 1066.28 1283.65 1070.08 1279.25 1073.31C1274.96 1076.43 1270.66 1078.87 1266.36 1080.63C1262.06 1082.49 1257.72 1083.41 1253.32 1083.41C1249.61 1083.41 1246.24 1082.73 1243.22 1081.36C1240.29 1080.09 1237.75 1078.29 1235.6 1075.94C1233.35 1073.5 1231.64 1070.57 1230.47 1067.15C1229.3 1063.64 1228.71 1059.73 1228.71 1055.44C1228.71 1048.7 1230.23 1041.76 1233.26 1034.63C1236.19 1027.51 1239.9 1020.57 1244.39 1013.83C1248.98 1007.1 1254.01 1000.7 1259.48 994.645C1265.04 988.59 1270.32 983.219 1275.3 978.531L1281.6 982.926C1278.08 988.102 1274.12 993.961 1269.73 1000.5C1265.43 1007.05 1261.33 1013.83 1257.43 1020.87C1253.62 1027.8 1250.39 1034.78 1247.76 1041.81C1245.12 1048.75 1243.8 1055.19 1243.8 1061.15C1243.8 1065.15 1244.54 1068.57 1246 1071.4C1247.56 1074.23 1250.49 1075.65 1254.79 1075.65C1259.48 1075.65 1264.6 1073.79 1270.17 1070.08C1275.83 1066.37 1281.6 1061.54 1287.46 1055.58C1293.41 1049.62 1299.32 1042.94 1305.18 1035.51C1311.14 1027.99 1316.75 1020.43 1322.03 1012.81C1327.3 1005.19 1332.08 997.916 1336.38 990.982C1340.78 984.049 1344.34 978.141 1347.07 973.258L1357.77 978.531C1352.1 989.664 1346.63 1000.06 1341.36 1009.73C1336.19 1019.3 1331.55 1027.95 1327.45 1035.66C1323.44 1043.28 1320.22 1049.92 1317.78 1055.58C1315.43 1061.25 1314.26 1065.74 1314.26 1069.06C1314.26 1070.43 1314.55 1071.55 1315.14 1072.43C1315.73 1073.31 1316.65 1073.75 1317.92 1073.75C1321.54 1073.84 1325.49 1072.28 1329.79 1069.06C1334.18 1065.84 1338.58 1061.78 1342.97 1056.9C1347.46 1052.02 1351.81 1046.7 1356.01 1040.93C1360.31 1035.07 1364.16 1029.61 1367.58 1024.53L1372.86 1028.63C1372.27 1029.61 1371.05 1031.61 1369.19 1034.63C1367.34 1037.66 1365.04 1041.13 1362.31 1045.04C1359.57 1048.94 1356.45 1053.04 1352.93 1057.34C1349.42 1061.64 1345.71 1065.59 1341.8 1069.21C1337.89 1072.72 1333.84 1075.65 1329.64 1077.99C1325.44 1080.24 1321.29 1081.36 1317.19 1081.36C1314.65 1081.36 1312.36 1080.92 1310.31 1080.04C1308.35 1079.17 1306.69 1077.99 1305.33 1076.53C1303.96 1075.06 1302.88 1073.36 1302.1 1071.4C1301.32 1069.45 1300.93 1067.4 1300.93 1065.25C1300.93 1062.71 1301.32 1059.93 1302.1 1056.9C1302.98 1053.87 1304.2 1050.65 1305.77 1047.23Z" fill="#F3F3F2"/>
<path d="M1378.71 1045.77C1378.52 1046.94 1378.37 1048.11 1378.28 1049.28C1378.18 1050.46 1378.13 1051.63 1378.13 1052.8C1378.13 1056.31 1378.62 1059.68 1379.59 1062.91C1380.67 1066.03 1382.18 1068.81 1384.13 1071.26C1386.19 1073.6 1388.68 1075.46 1391.61 1076.82C1394.63 1078.19 1398.05 1078.87 1401.86 1078.87C1414.65 1078.87 1427.01 1074.53 1438.92 1065.84C1450.83 1057.14 1462.7 1043.38 1474.52 1024.53L1479.5 1028.92C1473.05 1039.66 1466.51 1048.75 1459.87 1056.17C1453.23 1063.49 1446.59 1069.45 1439.95 1074.04C1433.4 1078.63 1426.96 1081.95 1420.61 1084C1414.26 1086.05 1408.21 1087.08 1402.45 1087.08C1398.25 1087.08 1393.8 1086.49 1389.12 1085.32C1384.43 1084.15 1380.08 1082.19 1376.08 1079.46C1372.17 1076.72 1368.95 1073.06 1366.41 1068.47C1363.77 1063.88 1362.46 1058.17 1362.46 1051.33C1362.46 1044.01 1363.72 1036.98 1366.26 1030.24C1368.71 1023.4 1371.93 1017.06 1375.93 1011.2C1379.94 1005.34 1384.53 1000.02 1389.7 995.23C1394.88 990.348 1400.1 986.197 1405.38 982.779C1410.75 979.361 1415.97 976.725 1421.05 974.869C1426.13 972.916 1430.62 971.939 1434.53 971.939C1437.06 971.939 1439.65 972.33 1442.29 973.111C1444.93 973.893 1447.27 975.113 1449.32 976.773C1451.47 978.434 1453.18 980.631 1454.45 983.365C1455.81 986.1 1456.5 989.371 1456.5 993.18C1456.5 998.355 1455.28 1003.24 1452.84 1007.83C1450.49 1012.32 1447.32 1016.52 1443.31 1020.43C1439.31 1024.23 1434.67 1027.7 1429.4 1030.83C1424.12 1033.85 1418.61 1036.44 1412.85 1038.59C1407.08 1040.74 1401.27 1042.45 1395.41 1043.72C1389.55 1044.99 1383.99 1045.67 1378.71 1045.77ZM1379.89 1039.47C1386.43 1038.79 1392.58 1037.42 1398.34 1035.37C1404.11 1033.32 1409.38 1030.83 1414.16 1027.9C1418.95 1024.87 1423.2 1021.6 1426.91 1018.08C1430.72 1014.57 1433.89 1011 1436.43 1007.39C1438.97 1003.78 1440.92 1000.31 1442.29 996.988C1443.66 993.668 1444.34 990.689 1444.34 988.053C1444.34 985.416 1443.61 983.316 1442.14 981.754C1440.78 980.191 1439.12 979.41 1437.16 979.41C1432.87 979.41 1428.03 980.973 1422.66 984.098C1417.29 987.125 1411.92 991.373 1406.55 996.842C1401.18 1002.21 1396.1 1008.56 1391.31 1015.88C1386.62 1023.21 1382.82 1031.07 1379.89 1039.47Z" fill="#F3F3F2"/>
<path d="M1521.54 964.176C1521.05 965.055 1520.41 966.031 1519.63 967.105C1518.85 968.082 1518.07 969.254 1517.29 970.621C1516.61 971.891 1515.97 973.404 1515.38 975.162C1514.9 976.92 1514.65 979.02 1514.65 981.461C1514.65 983.512 1515.14 986.295 1516.12 989.811C1517.19 993.326 1518.31 997.379 1519.49 1001.97C1520.66 1006.46 1521.73 1011.39 1522.71 1016.76C1523.78 1022.04 1524.32 1027.51 1524.32 1033.17C1524.32 1041.47 1523.2 1048.79 1520.95 1055.14C1518.71 1061.49 1515.73 1066.91 1512.02 1071.4C1519.63 1067.3 1527.1 1061.44 1534.43 1053.82C1541.75 1046.11 1549.12 1036.34 1556.55 1024.53L1561.53 1028.92C1557.33 1035.86 1552.54 1042.74 1547.17 1049.58C1541.9 1056.31 1536.09 1062.42 1529.74 1067.89C1523.39 1073.26 1516.56 1077.6 1509.23 1080.92C1501.91 1084.34 1494.14 1086.05 1485.94 1086.05C1478.62 1086.05 1472.46 1084.29 1467.48 1080.78C1462.41 1077.36 1459.28 1072.18 1458.11 1065.25L1463.38 1064.22C1463.38 1064.81 1463.68 1065.79 1464.26 1067.15C1464.75 1068.42 1465.58 1069.69 1466.75 1070.96C1467.92 1072.23 1469.54 1073.36 1471.59 1074.33C1473.54 1075.31 1475.98 1075.8 1478.91 1075.8C1482.82 1075.8 1486.28 1074.92 1489.31 1073.16C1492.34 1071.3 1494.97 1068.91 1497.22 1065.98C1499.47 1063.05 1501.37 1059.73 1502.93 1056.02C1504.5 1052.21 1505.72 1048.31 1506.6 1044.3C1507.57 1040.3 1508.26 1036.39 1508.65 1032.58C1509.04 1028.78 1509.23 1025.31 1509.23 1022.18C1509.23 1019.06 1509.09 1015.59 1508.79 1011.78C1508.6 1007.97 1508.35 1004.36 1508.06 1000.94C1507.77 997.428 1507.47 994.4 1507.18 991.861C1506.99 989.225 1506.89 987.516 1506.89 986.734V986.441C1505.62 987.809 1504.11 989.811 1502.35 992.447C1500.59 995.084 1498.69 997.965 1496.63 1001.09C1494.68 1004.21 1492.68 1007.39 1490.63 1010.61C1488.68 1013.83 1486.87 1016.76 1485.21 1019.4C1483.65 1022.04 1482.33 1024.23 1481.25 1025.99C1480.28 1027.65 1479.79 1028.53 1479.79 1028.63L1474.52 1024.53C1474.61 1024.43 1475.83 1022.33 1478.18 1018.23C1480.52 1014.13 1483.6 1008.95 1487.41 1002.7C1491.31 996.354 1495.71 989.371 1500.59 981.754C1505.47 974.039 1510.5 966.568 1515.68 959.342L1521.54 964.176Z" fill="#F3F3F2"/>
<path d="M1586.28 958.316C1587.26 956.656 1588.97 953.775 1591.41 949.674C1593.95 945.572 1596.88 941.031 1600.2 936.051C1603.62 931.07 1607.28 926.09 1611.19 921.109C1615.19 916.031 1619.1 911.734 1622.9 908.219L1629.5 912.174C1625.3 919.107 1621 926.48 1616.61 934.293C1612.21 942.008 1607.87 950.016 1603.57 958.316H1651.32L1648.39 965.934H1599.61C1595.22 974.723 1591.07 983.463 1587.16 992.154C1583.35 1000.85 1579.98 1009.15 1577.05 1017.06C1574.12 1024.97 1571.83 1032.39 1570.17 1039.32C1568.51 1046.16 1567.68 1052.12 1567.68 1057.19C1567.68 1063.54 1569.14 1068.13 1572.07 1070.96C1575 1073.7 1578.62 1075.06 1582.91 1075.06C1586.72 1075.06 1590.63 1073.94 1594.63 1071.7C1598.64 1069.35 1602.54 1066.42 1606.35 1062.91C1610.26 1059.39 1613.92 1055.53 1617.34 1051.33C1620.85 1047.13 1623.93 1043.18 1626.57 1039.47C1629.3 1035.76 1631.55 1032.54 1633.3 1029.8C1635.06 1026.97 1636.14 1025.21 1636.53 1024.53L1641.95 1028.63C1638.53 1034.29 1634.67 1040.3 1630.38 1046.65C1626.08 1052.99 1621.29 1058.9 1616.02 1064.37C1610.84 1069.74 1605.18 1074.23 1599.03 1077.85C1592.88 1081.36 1586.23 1083.12 1579.11 1083.12C1574.71 1083.12 1570.85 1082.34 1567.53 1080.78C1564.31 1079.21 1561.58 1077.07 1559.33 1074.33C1557.08 1071.5 1555.42 1068.18 1554.35 1064.37C1553.18 1060.56 1552.59 1056.41 1552.59 1051.92C1552.59 1048.99 1553.08 1044.84 1554.06 1039.47C1554.94 1034.1 1556.5 1027.75 1558.74 1020.43C1560.99 1013 1563.97 1004.7 1567.68 995.523C1571.49 986.344 1576.27 976.48 1582.04 965.934H1557.72L1560.65 958.316H1586.28Z" fill="#F3F3F2"/>
<path d="M1702.3 949.234C1702.3 951.188 1701.81 953.238 1700.83 955.387C1699.86 957.438 1698.59 959.293 1697.03 960.953C1695.56 962.613 1693.9 963.98 1692.04 965.055C1690.19 966.129 1688.33 966.666 1686.48 966.666C1684.82 966.666 1683.55 966.08 1682.67 964.908C1681.79 963.639 1681.35 962.125 1681.35 960.367C1681.35 958.805 1681.64 956.949 1682.23 954.801C1682.82 952.652 1683.7 950.65 1684.87 948.795C1686.04 946.842 1687.46 945.182 1689.12 943.814C1690.78 942.447 1692.68 941.764 1694.83 941.764C1696.88 941.764 1698.64 942.545 1700.1 944.107C1701.57 945.67 1702.3 947.379 1702.3 949.234ZM1674.91 981.754C1673.64 984.293 1671.83 987.662 1669.49 991.861C1667.24 995.963 1664.8 1000.5 1662.16 1005.48C1659.53 1010.37 1656.84 1015.54 1654.11 1021.01C1651.37 1026.38 1648.88 1031.66 1646.63 1036.83C1644.49 1041.91 1642.73 1046.7 1641.36 1051.19C1639.99 1055.68 1639.31 1059.49 1639.31 1062.61C1639.31 1065.45 1639.9 1067.4 1641.07 1068.47C1642.24 1069.45 1643.9 1069.94 1646.05 1069.94C1650.05 1069.94 1653.96 1068.62 1657.77 1065.98C1661.58 1063.35 1665.34 1059.93 1669.05 1055.73C1672.86 1051.43 1676.57 1046.55 1680.18 1041.08C1683.79 1035.61 1687.41 1030.09 1691.02 1024.53L1696.29 1028.63C1693.46 1033.71 1690.24 1039.13 1686.62 1044.89C1683.11 1050.65 1679.15 1056.02 1674.76 1061C1670.37 1065.88 1665.53 1069.94 1660.26 1073.16C1654.98 1076.38 1649.22 1077.99 1642.97 1077.99C1637.11 1077.99 1632.62 1076.24 1629.5 1072.72C1626.37 1069.21 1624.81 1064.66 1624.81 1059.1C1624.81 1052.55 1626.32 1045.72 1629.35 1038.59C1632.38 1031.46 1636.14 1024.43 1640.63 1017.5C1645.22 1010.46 1650.15 1003.73 1655.42 997.281C1660.79 990.836 1665.73 984.977 1670.22 979.703L1674.91 981.754Z" fill="#F3F3F2"/>
<path d="M1773.64 1039.32C1774.03 1039.42 1774.42 1039.47 1774.81 1039.47C1775.2 1039.47 1775.64 1039.47 1776.13 1039.47C1778.86 1039.47 1781.35 1039.22 1783.6 1038.74C1785.84 1038.15 1787.89 1037.27 1789.75 1036.1C1791.7 1034.93 1793.56 1033.41 1795.32 1031.56C1797.07 1029.61 1798.78 1027.26 1800.44 1024.53L1805.72 1028.63C1801.03 1035.27 1796.2 1039.91 1791.21 1042.54C1786.23 1045.18 1780.96 1046.5 1775.39 1046.5C1773.34 1046.5 1771.54 1046.3 1769.97 1045.91C1765.78 1052.95 1761.28 1058.95 1756.5 1063.93C1751.71 1068.81 1746.83 1072.82 1741.85 1075.94C1736.87 1079.07 1731.94 1081.31 1727.05 1082.68C1722.17 1084.15 1717.63 1084.88 1713.43 1084.88C1709.13 1084.88 1705.13 1084.1 1701.42 1082.54C1697.81 1081.07 1694.68 1078.92 1692.04 1076.09C1689.41 1073.26 1687.36 1069.89 1685.89 1065.98C1684.43 1062.08 1683.7 1057.68 1683.7 1052.8C1683.7 1047.92 1684.48 1042.94 1686.04 1037.86C1687.6 1032.78 1689.7 1027.75 1692.34 1022.77C1695.07 1017.79 1698.25 1013 1701.86 1008.41C1705.47 1003.73 1709.38 999.381 1713.58 995.377C1717.78 991.373 1722.12 987.76 1726.62 984.537C1731.11 981.314 1735.6 978.678 1740.09 976.627L1744.78 982.779C1739.6 986.49 1734.33 991.178 1728.96 996.842C1723.69 1002.51 1718.85 1008.71 1714.46 1015.45C1710.16 1022.18 1706.6 1029.21 1703.76 1036.54C1701.03 1043.77 1699.66 1050.8 1699.66 1057.63C1699.66 1063.79 1701.03 1068.57 1703.76 1071.99C1706.5 1075.31 1710.65 1076.97 1716.21 1076.97C1720.51 1076.97 1724.76 1076.09 1728.96 1074.33C1733.16 1072.57 1737.26 1070.18 1741.26 1067.15C1745.27 1064.13 1749.12 1060.56 1752.84 1056.46C1756.55 1052.26 1760.06 1047.82 1763.38 1043.13C1760.55 1041.47 1758.06 1039.27 1755.91 1036.54C1753.76 1033.71 1751.96 1030.53 1750.49 1027.02C1749.03 1023.4 1747.9 1019.55 1747.12 1015.45C1746.44 1011.34 1746.1 1007.14 1746.1 1002.85C1746.1 998.551 1746.63 994.498 1747.71 990.689C1748.78 986.881 1750.25 983.561 1752.1 980.729C1754.06 977.799 1756.3 975.504 1758.84 973.844C1761.38 972.184 1764.16 971.354 1767.19 971.354C1769.93 971.354 1772.37 972.086 1774.52 973.551C1776.66 974.918 1778.47 976.871 1779.94 979.41C1781.4 981.852 1782.52 984.781 1783.3 988.199C1784.09 991.617 1784.48 995.279 1784.48 999.186C1784.48 1002.12 1784.23 1005.34 1783.74 1008.85C1783.26 1012.37 1782.52 1015.93 1781.55 1019.55C1780.67 1023.06 1779.54 1026.58 1778.18 1030.09C1776.91 1033.51 1775.39 1036.59 1773.64 1039.32ZM1753.71 1002.85C1753.71 1005.68 1753.96 1008.76 1754.45 1012.08C1754.94 1015.4 1755.72 1018.62 1756.79 1021.74C1757.87 1024.87 1759.23 1027.8 1760.89 1030.53C1762.55 1033.17 1764.6 1035.27 1767.04 1036.83C1768.8 1033.41 1770.27 1029.95 1771.44 1026.43C1772.71 1022.82 1773.73 1019.35 1774.52 1016.03C1775.39 1012.71 1775.98 1009.63 1776.27 1006.8C1776.66 1003.87 1776.86 1001.33 1776.86 999.186C1776.86 996.256 1776.62 993.57 1776.13 991.129C1775.64 988.688 1774.96 986.588 1774.08 984.83C1773.29 982.975 1772.27 981.559 1771 980.582C1769.83 979.508 1768.51 978.971 1767.04 978.971C1765.09 978.971 1763.29 979.654 1761.62 981.021C1759.96 982.291 1758.55 984.049 1757.38 986.295C1756.21 988.443 1755.28 990.982 1754.59 993.912C1754.01 996.744 1753.71 999.723 1753.71 1002.85Z" fill="#F3F3F2"/>
<path d="M1922.9 1003.14C1922.9 1007.34 1922.17 1011.64 1920.71 1016.03C1919.24 1020.33 1917.39 1024.67 1915.14 1029.07C1912.89 1033.37 1910.5 1037.61 1907.96 1041.81C1905.42 1046.01 1903.03 1050.06 1900.79 1053.97C1898.54 1057.88 1896.68 1061.64 1895.22 1065.25C1893.75 1068.77 1893.02 1071.99 1893.02 1074.92C1893.02 1077.16 1893.51 1078.68 1894.49 1079.46C1895.46 1080.24 1896.54 1080.63 1897.71 1080.63C1901.42 1080.63 1905.57 1078.82 1910.16 1075.21C1914.75 1071.5 1919.39 1066.86 1924.08 1061.29C1928.86 1055.73 1933.6 1049.67 1938.29 1043.13C1942.97 1036.59 1947.22 1030.39 1951.03 1024.53L1956.3 1028.63C1955.52 1029.8 1954.11 1032.14 1952.05 1035.66C1950 1039.08 1947.46 1043.03 1944.44 1047.53C1941.41 1051.92 1937.99 1056.56 1934.18 1061.44C1930.47 1066.23 1926.47 1070.67 1922.17 1074.77C1917.88 1078.78 1913.43 1082.1 1908.84 1084.73C1904.35 1087.37 1899.81 1088.69 1895.22 1088.69C1892.58 1088.69 1890.19 1088.25 1888.04 1087.37C1885.89 1086.49 1884.04 1085.27 1882.47 1083.71C1881.01 1082.14 1879.84 1080.34 1878.96 1078.29C1878.08 1076.14 1877.64 1073.89 1877.64 1071.55C1877.64 1067.74 1878.47 1063.64 1880.13 1059.24C1881.89 1054.75 1884.04 1050.16 1886.58 1045.47C1889.12 1040.79 1891.9 1036.1 1894.93 1031.41C1897.95 1026.63 1900.74 1022.09 1903.28 1017.79C1905.81 1013.49 1907.91 1009.54 1909.57 1005.92C1911.33 1002.21 1912.21 999.039 1912.21 996.402C1912.21 993.375 1911.38 990.836 1909.72 988.785C1908.16 986.734 1905.91 985.709 1902.98 985.709C1899.86 985.709 1896.24 987.027 1892.14 989.664C1888.04 992.203 1883.45 995.963 1878.37 1000.94C1873.29 1005.92 1867.73 1012.08 1861.67 1019.4C1855.72 1026.63 1849.22 1034.88 1842.19 1044.16C1838.19 1049.53 1834.28 1054.7 1830.47 1059.68C1828.81 1061.83 1827.15 1064.03 1825.49 1066.28C1823.83 1068.52 1822.17 1070.77 1820.51 1073.01C1818.85 1075.16 1817.29 1077.21 1815.82 1079.17C1814.36 1081.22 1813.04 1082.97 1811.87 1084.44L1798.98 1079.17L1816.12 1055.58C1818.56 1052.26 1821.05 1048.7 1823.59 1044.89C1826.13 1041.08 1828.62 1037.17 1831.06 1033.17C1833.6 1029.07 1835.99 1024.97 1838.24 1020.87C1840.48 1016.76 1842.58 1012.76 1844.54 1008.85C1847.37 1002.99 1849.32 998.16 1850.39 994.352C1851.47 990.445 1852.01 987.32 1852.01 984.977C1852.01 982.34 1851.52 980.631 1850.54 979.85C1849.56 978.971 1848.2 978.531 1846.44 978.531C1844.58 978.531 1842.44 979.508 1839.99 981.461C1837.65 983.316 1835.21 985.758 1832.67 988.785C1830.13 991.715 1827.54 995.084 1824.91 998.893C1822.37 1002.6 1819.93 1006.31 1817.58 1010.03C1815.24 1013.74 1813.04 1017.25 1810.99 1020.57C1808.94 1023.89 1807.23 1026.58 1805.86 1028.63L1800.59 1024.53C1805.57 1016.71 1810.06 1009.59 1814.07 1003.14C1818.17 996.598 1822.07 990.982 1825.79 986.295C1829.59 981.607 1833.26 977.994 1836.77 975.455C1840.38 972.818 1844.19 971.5 1848.2 971.5C1850.35 971.5 1852.4 971.939 1854.35 972.818C1856.4 973.697 1858.16 975.016 1859.62 976.773C1861.19 978.434 1862.41 980.484 1863.29 982.926C1864.16 985.367 1864.6 988.199 1864.6 991.422C1864.6 993.961 1864.31 996.598 1863.72 999.332C1868.02 995.133 1872.03 991.666 1875.74 988.932C1879.45 986.197 1882.87 984.049 1885.99 982.486C1889.12 980.826 1892 979.654 1894.63 978.971C1897.27 978.287 1899.66 977.945 1901.81 977.945C1903.67 977.945 1905.81 978.287 1908.26 978.971C1910.7 979.654 1912.99 980.924 1915.14 982.779C1917.29 984.635 1919.1 987.223 1920.56 990.543C1922.12 993.766 1922.9 997.965 1922.9 1003.14Z" fill="#F3F3F2"/>
<path d="M1998.2 964.176C1997.71 965.055 1997.07 966.031 1996.29 967.105C1995.51 968.082 1994.73 969.254 1993.95 970.621C1993.27 971.891 1992.63 973.404 1992.04 975.162C1991.56 976.92 1991.31 979.02 1991.31 981.461C1991.31 983.512 1991.8 986.295 1992.78 989.811C1993.85 993.326 1994.97 997.379 1996.15 1001.97C1997.32 1006.46 1998.39 1011.39 1999.37 1016.76C2000.44 1022.04 2000.98 1027.51 2000.98 1033.17C2000.98 1041.47 1999.86 1048.79 1997.61 1055.14C1995.37 1061.49 1992.39 1066.91 1988.68 1071.4C1996.29 1067.3 2003.76 1061.44 2011.09 1053.82C2018.41 1046.11 2025.79 1036.34 2033.21 1024.53L2038.19 1028.92C2033.99 1035.86 2029.2 1042.74 2023.83 1049.58C2018.56 1056.31 2012.75 1062.42 2006.4 1067.89C2000.05 1073.26 1993.22 1077.6 1985.89 1080.92C1978.57 1084.34 1970.8 1086.05 1962.6 1086.05C1955.28 1086.05 1949.12 1084.29 1944.14 1080.78C1939.07 1077.36 1935.94 1072.18 1934.77 1065.25L1940.04 1064.22C1940.04 1064.81 1940.34 1065.79 1940.92 1067.15C1941.41 1068.42 1942.24 1069.69 1943.41 1070.96C1944.58 1072.23 1946.2 1073.36 1948.25 1074.33C1950.2 1075.31 1952.64 1075.8 1955.57 1075.8C1959.48 1075.8 1962.94 1074.92 1965.97 1073.16C1969 1071.3 1971.63 1068.91 1973.88 1065.98C1976.13 1063.05 1978.03 1059.73 1979.59 1056.02C1981.16 1052.21 1982.38 1048.31 1983.26 1044.3C1984.23 1040.3 1984.92 1036.39 1985.31 1032.58C1985.7 1028.78 1985.89 1025.31 1985.89 1022.18C1985.89 1019.06 1985.75 1015.59 1985.45 1011.78C1985.26 1007.97 1985.01 1004.36 1984.72 1000.94C1984.43 997.428 1984.13 994.4 1983.84 991.861C1983.65 989.225 1983.55 987.516 1983.55 986.734V986.441C1982.28 987.809 1980.77 989.811 1979.01 992.447C1977.25 995.084 1975.35 997.965 1973.29 1001.09C1971.34 1004.21 1969.34 1007.39 1967.29 1010.61C1965.34 1013.83 1963.53 1016.76 1961.87 1019.4C1960.31 1022.04 1958.99 1024.23 1957.91 1025.99C1956.94 1027.65 1956.45 1028.53 1956.45 1028.63L1951.18 1024.53C1951.27 1024.43 1952.49 1022.33 1954.84 1018.23C1957.18 1014.13 1960.26 1008.95 1964.07 1002.7C1967.97 996.354 1972.37 989.371 1977.25 981.754C1982.13 974.039 1987.16 966.568 1992.34 959.342L1998.2 964.176Z" fill="#F3F3F2"/>
</g>
<defs>
<clipPath id="clip0_13_13">
<rect width="2100" height="1165" fill="white"/>
</clipPath>
</defs>
</svg>
